<mxfile host="app.diagrams.net" agent="Mozilla/5.0 (Macintosh; Intel Mac OS X 10_15_7) AppleWebKit/537.36 (KHTML, like Gecko) Chrome/126.0.0.0 Safari/537.36" version="25.0.3">
  <diagram name="第 1 页" id="icaXaFWhSe88ullYqy8B">
    <mxGraphModel dx="1283" dy="856" grid="1" gridSize="10" guides="1" tooltips="1" connect="1" arrows="1" fold="1" page="1" pageScale="1" pageWidth="827" pageHeight="1169" math="0" shadow="0">
      <root>
        <mxCell id="0" />
        <mxCell id="1" parent="0" />
        <mxCell id="BQofmVe41HEEeJhDosUI-20" value="" style="rounded=0;whiteSpace=wrap;html=1;fillColor=#fff2cc;strokeColor=#d6b656;" vertex="1" parent="1">
          <mxGeometry x="230" y="130" width="470" height="260" as="geometry" />
        </mxCell>
        <mxCell id="BQofmVe41HEEeJhDosUI-18" style="edgeStyle=orthogonalEdgeStyle;rounded=0;orthogonalLoop=1;jettySize=auto;html=1;" edge="1" parent="1" source="BQofmVe41HEEeJhDosUI-15" target="BQofmVe41HEEeJhDosUI-19">
          <mxGeometry relative="1" as="geometry">
            <mxPoint x="280" y="260" as="targetPoint" />
          </mxGeometry>
        </mxCell>
        <mxCell id="BQofmVe41HEEeJhDosUI-15" value="MySQL" style="shape=cylinder3;whiteSpace=wrap;html=1;boundedLbl=1;backgroundOutline=1;size=15;" vertex="1" parent="1">
          <mxGeometry x="80" y="220" width="60" height="80" as="geometry" />
        </mxCell>
        <mxCell id="BQofmVe41HEEeJhDosUI-25" style="edgeStyle=orthogonalEdgeStyle;rounded=0;orthogonalLoop=1;jettySize=auto;html=1;" edge="1" parent="1" source="BQofmVe41HEEeJhDosUI-17" target="BQofmVe41HEEeJhDosUI-24">
          <mxGeometry relative="1" as="geometry" />
        </mxCell>
        <mxCell id="BQofmVe41HEEeJhDosUI-17" value="Kafka" style="strokeWidth=2;html=1;shape=mxgraph.flowchart.direct_data;whiteSpace=wrap;" vertex="1" parent="1">
          <mxGeometry x="500" y="230" width="100" height="60" as="geometry" />
        </mxCell>
        <mxCell id="BQofmVe41HEEeJhDosUI-22" style="edgeStyle=orthogonalEdgeStyle;rounded=0;orthogonalLoop=1;jettySize=auto;html=1;" edge="1" parent="1" source="BQofmVe41HEEeJhDosUI-19" target="BQofmVe41HEEeJhDosUI-17">
          <mxGeometry relative="1" as="geometry" />
        </mxCell>
        <mxCell id="BQofmVe41HEEeJhDosUI-19" value="fetcher" style="rounded=1;whiteSpace=wrap;html=1;fillColor=#dae8fc;strokeColor=#6c8ebf;" vertex="1" parent="1">
          <mxGeometry x="270" y="230" width="120" height="60" as="geometry" />
        </mxCell>
        <mxCell id="BQofmVe41HEEeJhDosUI-21" value="后台代码" style="text;html=1;align=center;verticalAlign=middle;whiteSpace=wrap;rounded=0;" vertex="1" parent="1">
          <mxGeometry x="230" y="140" width="60" height="30" as="geometry" />
        </mxCell>
        <mxCell id="BQofmVe41HEEeJhDosUI-24" value="clickhouse" style="shape=cylinder3;whiteSpace=wrap;html=1;boundedLbl=1;backgroundOutline=1;size=12.75;" vertex="1" parent="1">
          <mxGeometry x="760" y="220" width="80" height="80" as="geometry" />
        </mxCell>
        <mxCell id="BQofmVe41HEEeJhDosUI-31" value="" style="edgeStyle=orthogonalEdgeStyle;rounded=0;orthogonalLoop=1;jettySize=auto;html=1;" edge="1" parent="1" source="BQofmVe41HEEeJhDosUI-26" target="BQofmVe41HEEeJhDosUI-30">
          <mxGeometry relative="1" as="geometry" />
        </mxCell>
        <mxCell id="BQofmVe41HEEeJhDosUI-26" value="aggressive" style="rounded=1;whiteSpace=wrap;html=1;fillColor=#dae8fc;strokeColor=#6c8ebf;" vertex="1" parent="1">
          <mxGeometry x="560" y="140" width="120" height="60" as="geometry" />
        </mxCell>
        <mxCell id="BQofmVe41HEEeJhDosUI-28" value="" style="shape=flexArrow;endArrow=classic;html=1;rounded=0;" edge="1" parent="1" source="BQofmVe41HEEeJhDosUI-24" target="BQofmVe41HEEeJhDosUI-26">
          <mxGeometry width="50" height="50" relative="1" as="geometry">
            <mxPoint x="670" y="320" as="sourcePoint" />
            <mxPoint x="760" y="170" as="targetPoint" />
          </mxGeometry>
        </mxCell>
        <mxCell id="BQofmVe41HEEeJhDosUI-30" value="前端" style="rounded=1;whiteSpace=wrap;html=1;fillColor=#dae8fc;strokeColor=#6c8ebf;" vertex="1" parent="1">
          <mxGeometry x="560" width="120" height="60" as="geometry" />
        </mxCell>
      </root>
    </mxGraphModel>
  </diagram>
</mxfile>
